<svg width="87" height="60" viewBox="0 0 87 60" fill="none" xmlns="http://www.w3.org/2000/svg">
<path fill-rule="evenodd" clip-rule="evenodd" d="M80.7194 35.9597L80.7211 35.9634C80.8526 36.2418 80.9835 36.5192 81.1284 36.7836L81.1731 36.8627C81.3565 37.1882 81.5575 37.5446 81.805 37.763L81.8496 37.8023C82.2333 38.1038 82.6744 38.2215 83.1198 38.0469C83.5162 37.8908 83.8573 37.5131 84.0411 37.0584C84.2496 36.5375 84.2328 35.9693 84.216 35.4007L84.2127 35.2851C84.2066 35.0093 84.2009 34.7373 84.1979 34.4656C84.1953 34.2291 84.1947 33.9928 84.1975 33.7542C84.236 33.0026 84.3332 32.2695 84.432 31.5255L84.4323 31.5232L84.4414 31.4526C84.5618 30.5739 84.6635 29.6963 84.765 28.82C84.8109 28.4229 84.8569 28.026 84.9046 27.6295C84.9807 27.1785 85.0806 26.7361 85.1899 26.2773C85.1869 26.2933 85.1837 26.3089 85.1803 26.3245C85.1757 26.3452 85.1709 26.3657 85.1661 26.3862L85.1597 26.4131C85.1534 26.4398 85.1474 26.4667 85.1423 26.4945C85.2703 26.0029 85.4189 25.4924 85.5057 24.9892C85.5848 24.5161 85.6371 24.0564 85.6877 23.5829C85.7019 23.4492 85.7155 23.3157 85.7289 23.1823L85.746 23.0108C85.7596 22.8741 85.7733 22.7374 85.7873 22.6006L85.8007 22.4721C85.8222 22.2674 85.845 22.0624 85.8707 21.8567C85.9712 21.0448 86.0745 20.1612 85.9265 19.3644C86.0603 19.2481 86.1844 19.0985 86.283 18.9263C86.7384 18.1314 86.5977 17.0204 85.9859 16.4807L85.7756 16.2951C85.0536 15.6582 84.2313 16.0322 83.4562 16.3849C83.4102 16.4058 83.3644 16.4266 83.3188 16.4471C83.1813 16.5086 83.0438 16.5707 82.9063 16.6327L82.8648 16.6515C82.0382 17.0247 81.2104 17.3985 80.3626 17.6704C80.3638 17.6693 80.3648 17.668 80.3657 17.6665C80.3557 17.6688 80.3459 17.6711 80.3405 17.6775L80.3167 17.685C80.0776 17.7546 79.8447 17.8299 79.6119 17.9051L79.604 17.9076C79.1253 18.0339 78.6453 18.1499 78.1653 18.266C77.3418 18.465 76.5184 18.664 75.7013 18.9152L75.621 18.9401L75.6172 18.9413C75.6008 18.9461 75.5844 18.9509 75.5678 18.9562L75.5269 18.9685C75.12 19.0932 74.71 19.2189 74.3088 19.3802C73.9881 19.5045 73.6487 19.6615 73.3895 19.9633C73.1349 20.2569 72.8994 20.5674 72.7724 20.9735C72.5849 21.5854 72.7 22.2051 72.9839 22.7145C73.0331 22.8016 73.0876 22.8838 73.1446 22.9638C73.1906 23.0284 73.2383 23.0917 73.286 23.1551C73.3796 23.2792 73.4735 23.4039 73.5565 23.5405C73.8735 24.0422 74.174 24.5602 74.4744 25.0782L74.4786 25.085C74.7777 25.6007 75.0768 26.1164 75.3924 26.6159C75.615 26.973 75.8394 27.3269 76.0637 27.6805L76.1094 27.7527C76.1835 27.8696 76.2577 27.9864 76.3316 28.1034C75.7098 28.6367 75.074 29.1392 74.4119 29.6001C74.4198 29.5947 74.4305 29.5887 74.4412 29.5827L74.4341 29.5876L74.424 29.5944C74.4151 29.6003 74.4061 29.606 74.3962 29.611C74.3775 29.6311 74.3579 29.6436 74.3362 29.6576C74.3287 29.6624 74.3208 29.6674 74.3127 29.673L74.3205 29.6679L74.3328 29.6606L74.3419 29.6555C74.3504 29.6507 74.359 29.6458 74.3662 29.6413C73.8144 30.0032 73.2592 30.3375 72.6881 30.6332L72.6159 30.6659L72.6128 30.6674C72.5199 30.7095 72.4289 30.7507 72.3371 30.7901C72.264 30.8215 72.1904 30.8516 72.1149 30.8801C71.4967 30.3348 70.6066 30.5488 70.1558 31.3356C69.8695 31.8355 69.7145 32.3404 69.7569 32.9699C69.7938 33.5083 70.0594 33.9154 70.3909 34.2078L70.4355 34.2471C70.7971 34.5538 71.217 34.5912 71.6413 34.5706C72.1051 34.5481 72.6186 34.3718 73.0607 34.1696C73.6054 33.9221 74.1373 33.6636 74.6515 33.3522C75.7869 32.6631 76.8817 31.8588 77.9179 30.9495C77.9535 31.027 77.9889 31.1047 78.0241 31.1828C78.2525 31.7051 78.484 32.2054 78.7487 32.6979C79.0331 33.2353 79.3629 33.7257 79.6932 34.2169C79.9462 34.593 80.1995 34.9696 80.433 35.3682C80.5322 35.5631 80.6259 35.7617 80.7194 35.9597ZM80.1826 28.6868C80.2064 28.7384 80.2298 28.7906 80.2529 28.8431C80.267 28.8749 80.2809 28.9068 80.2948 28.9389C80.3202 28.9975 80.3455 29.0565 80.3707 29.1154C80.4386 29.274 80.5066 29.4329 80.5787 29.5872C80.7796 30.0236 80.9853 30.4517 81.2131 30.8747C81.3476 31.0921 81.4868 31.3013 81.626 31.5104C81.6937 30.9904 81.7725 30.4676 81.8402 29.9475C81.8902 29.5172 81.936 29.0862 81.9817 28.6552C82.0274 28.2231 82.0732 27.7911 82.1234 27.3597C82.2275 26.4721 82.4476 25.6395 82.6729 24.7872L82.6866 24.7353C82.7526 24.4358 82.803 24.1471 82.8516 23.8445C82.9186 23.2251 82.9618 22.5969 83.0352 21.9831C83.1012 21.4492 83.1672 20.9153 83.192 20.3696C83.1918 20.3445 83.1921 20.3229 83.1923 20.3013C83.1926 20.2802 83.1928 20.259 83.1927 20.2345C83.1846 20.215 83.1829 20.2012 83.1796 20.1736C82.9049 20.3014 82.6238 20.4235 82.3539 20.5431C81.6606 20.8322 80.9543 21.0604 80.2416 21.2829C79.6373 21.4723 79.0254 21.6103 78.4142 21.7479C77.7833 21.8901 77.1531 22.032 76.5327 22.2304C76.5076 22.2475 76.4834 22.2585 76.4596 22.2665C76.446 22.2711 76.4326 22.2747 76.4192 22.2781L76.3969 22.2833C76.4955 22.4457 76.5888 22.6071 76.6816 22.7676C76.719 22.8322 76.7562 22.8967 76.7937 22.961C76.8124 22.9932 76.8313 23.0253 76.8502 23.0575L76.9064 23.1523C77.3808 23.9655 77.8598 24.7706 78.3704 25.5541C78.436 25.6565 78.502 25.7583 78.568 25.8602L78.6674 25.7513L78.7779 25.6298C78.8648 25.5265 78.9519 25.4233 79.0391 25.3203L79.2014 25.1285C79.2953 25.0177 79.3892 24.9069 79.4828 24.7959L79.6031 24.6531C79.7516 24.4764 79.8994 24.2991 80.0456 24.1204C80.6063 23.443 81.4576 23.3303 82.0339 23.9991C82.5639 24.6146 82.618 25.8098 82.0572 26.4871C81.4426 27.2361 80.8216 27.97 80.1826 28.6868Z" fill="black"/>
<path d="M29.1898 5.74497C28.8926 4.89053 29.2162 3.80658 29.9245 3.4075C31.4311 2.55283 32.9377 1.69817 34.5402 1.21194C35.7808 0.838261 37.0473 0.771135 38.2782 1.06749C38.8699 1.20694 39.4009 1.50269 39.9087 1.88898C40.3227 2.20475 40.697 2.75704 40.7504 3.38401C40.8092 4.10207 40.5778 4.77391 40.0817 5.1876C39.5811 5.60946 38.8874 5.61447 38.4094 5.1928C38.2501 5.05225 38.1142 4.87067 38.0273 4.67066C37.9432 4.63338 37.87 4.59358 37.7875 4.57015C37.6272 4.51506 37.4639 4.48202 37.3005 4.44897C37.0755 4.42312 36.8632 4.40857 36.6461 4.40218C36.3959 4.40355 36.1427 4.42686 35.8958 4.45582C35.5179 4.52947 35.1432 4.6308 34.7749 4.73776C34.2836 4.90884 33.7973 5.12132 33.319 5.35328L32.9523 5.55074L32.9467 5.55388C32.3084 5.89742 31.6734 6.23923 31.0407 6.60048C30.5722 6.86572 30.0396 6.79066 29.6508 6.44768C29.4405 6.26217 29.2868 6.02789 29.1898 5.74497Z" fill="black"/>
<path d="M48.03 22.2789L48.0267 22.2512C48.0241 22.2421 48.0222 22.2328 48.0208 22.2235C48.0195 22.2157 48.0186 22.2078 48.0176 22.2C48.0155 22.1828 48.0134 22.1656 48.0085 22.1489C47.9158 21.5762 47.8609 20.9984 47.806 20.4214L47.8058 20.4194C47.7532 19.8659 47.7007 19.3132 47.6148 18.7666C47.5111 18.194 47.387 17.6403 47.2296 17.0943C47.0396 16.4602 46.8271 15.8502 46.5853 15.2481C46.5998 15.2808 46.615 15.3124 46.6301 15.3441C46.1377 14.1485 45.5712 13.0035 45.0053 11.8597C44.7457 11.3351 44.4863 10.8107 44.2342 10.2818C43.8517 9.47565 44.0643 8.36775 44.7243 7.85199C45.3797 7.34442 46.2555 7.57418 46.6442 8.38597C46.7619 8.63238 46.8802 8.87861 46.9989 9.12482L47.3961 9.94666C47.8249 10.8329 48.2546 11.7209 48.6718 12.6174C49.379 14.1296 49.9446 15.7883 50.2795 17.5148C50.4452 18.3643 50.5446 19.2292 50.6172 20.1074C50.6337 20.3179 50.6484 20.5268 50.6673 20.7338C50.684 20.918 50.704 21.1006 50.7313 21.2814C50.7419 21.3216 50.7497 21.3623 50.7575 21.4031L50.7626 21.4294L50.7678 21.4556C50.7725 21.4789 50.7776 21.502 50.7837 21.525C50.9199 22.4595 50.3468 23.4097 49.6099 23.5739C49.2289 23.6696 48.867 23.5477 48.5866 23.3003C48.3108 23.0447 48.1136 22.6857 48.03 22.2789Z" fill="black"/>
<path d="M46.5853 15.2481C46.5704 15.2149 46.5562 15.1805 46.5432 15.1441L46.5688 15.2071L46.5853 15.2481Z" fill="black"/>
<path d="M42.7479 40.6459C42.4919 41.113 42.2344 41.5829 42.0066 42.0715C41.5955 42.8562 41.7375 43.9313 42.3476 44.4573C42.9658 45.0026 43.856 44.7886 44.3067 44.0018C44.3512 43.9241 44.3921 43.8374 44.4323 43.7521C44.4513 43.7116 44.4703 43.6713 44.4894 43.6326C44.7204 43.1874 44.9586 42.7442 45.1971 42.3005C45.261 42.1817 45.3248 42.0629 45.3885 41.944C45.4853 41.7636 45.5818 41.583 45.6775 41.402C45.8475 41.0808 46.0152 40.7584 46.1779 40.4339L46.1685 40.4503C47.0804 38.6304 47.9703 36.7911 48.8584 34.9555L49.0692 34.5199C49.284 34.0761 49.4987 33.6326 49.7137 33.1899C50.1245 32.3555 49.7954 31.2386 49.1591 30.8253C48.4561 30.3778 47.6575 30.7837 47.2514 31.6098C47.0435 32.0365 46.8374 32.4648 46.632 32.8936C46.535 33.0959 46.4383 33.2984 46.3415 33.5008C45.8884 34.4486 45.4353 35.3963 44.9684 36.332L44.9918 36.291C44.9898 36.2965 44.9877 36.302 44.9854 36.3075L44.9804 36.319L44.9776 36.3254L44.9725 36.3363C44.9655 36.3509 44.9579 36.3655 44.9502 36.3796C44.9411 36.3964 44.9318 36.4126 44.9231 36.4277L44.895 36.4769L43.8919 38.479C43.787 38.6793 43.6833 38.8792 43.5797 39.0788C43.378 39.4679 43.1768 39.8558 42.9681 40.2424C42.8953 40.377 42.8216 40.5113 42.7479 40.6459Z" fill="black"/>
<path d="M84.4438 31.4454C84.4434 31.4479 84.4424 31.4507 84.4414 31.4526L84.4461 31.421L84.4454 31.4307L84.4448 31.4384C84.4446 31.441 84.4443 31.4433 84.4438 31.4454Z" fill="black"/>
<path d="M26.641 56.0654C26.5349 55.1453 27.0201 54.315 27.7104 54.048C27.6882 54.0531 27.6724 54.0638 27.655 54.0608C27.7508 54.0228 27.8475 53.9782 27.9439 53.9319C28.0223 53.8943 28.1004 53.8556 28.1776 53.8186C28.3093 53.7446 28.4413 53.6735 28.573 53.6025C28.7208 53.5229 28.8682 53.4436 29.0141 53.3607C29.0851 53.3204 29.1558 53.2792 29.226 53.2368C29.2834 53.2021 29.3404 53.1666 29.397 53.1301C29.8827 52.8183 30.3794 52.5039 30.8714 52.1977C31.8108 51.5459 32.7438 50.8886 33.6625 50.2062C34.3305 49.7098 35.1855 49.9089 35.5824 50.7401C35.9678 51.5243 35.7603 52.6736 35.0923 53.1699C33.9483 54.0113 32.7932 54.8553 31.6153 55.6052L31.6139 55.6061C31.012 55.9874 30.4101 56.3686 29.7985 56.7166C29.292 56.9978 28.7779 57.3091 28.239 57.4628C27.8707 57.5698 27.5041 57.4561 27.2173 57.2031C26.913 56.947 26.698 56.5353 26.641 56.0654Z" fill="black"/>
<path d="M12.6371 55.6912C12.6016 56.0546 12.6436 56.4001 12.7362 56.7408C12.8905 57.3088 13.228 57.7915 13.6231 58.1401C13.7124 58.2188 13.8079 58.3032 13.9065 58.3655C14.5955 58.8376 15.37 59.0766 16.1391 59.2246C16.8844 59.3639 17.645 59.4428 18.399 59.4664C18.7529 59.4797 19.1067 59.4931 19.4613 59.5051C19.6195 59.5105 19.7779 59.5156 19.9365 59.5204C20.0828 59.5248 20.2292 59.5289 20.3759 59.5325C21.1346 59.548 21.8302 58.9031 21.9136 57.9034C21.9914 56.9973 21.4321 56.0475 20.6671 56.0264C19.3714 55.9938 18.0694 55.9555 16.7774 55.7658C16.4681 55.7027 16.1746 55.6288 15.8667 55.5299C15.8127 55.507 15.7651 55.4896 15.7174 55.4723C15.6671 54.8233 15.3477 54.2085 14.8302 54.0234C14.1825 53.7975 13.3755 53.8998 12.966 54.6983C12.8051 55.0128 12.6709 55.3139 12.6371 55.6912Z" fill="black"/>
<path d="M4.34359 50.7968L4.35307 50.8087C4.49459 50.9883 4.63602 51.1676 4.77738 51.3472C4.92848 51.5392 5.07946 51.7315 5.23032 51.9243C5.41089 52.1552 5.59126 52.3869 5.77143 52.6201C5.82413 52.6788 5.87674 52.7377 5.91834 52.7991C6.4537 53.2713 7.27145 53.1167 7.73759 52.504C8.28993 51.7575 8.22879 50.6919 7.70784 50.0103C7.38798 49.5958 7.06312 49.1867 6.7381 48.7775C6.33573 48.2709 5.93322 47.7641 5.53984 47.2464C5.24398 46.8251 4.95282 46.3955 4.6868 45.9387C4.52312 45.6216 4.37044 45.3019 4.2225 44.974C4.0759 44.6103 3.95611 44.2332 3.84104 43.8479C3.81809 43.7639 3.79573 43.679 3.77357 43.5937L3.74098 43.4681C3.54653 42.7167 3.34704 41.9456 2.84267 41.4374C2.25265 40.8429 1.31087 41.147 0.883616 41.8928C0.536198 42.4993 0.542665 43.2082 0.79995 43.7806L0.848255 43.8973L0.854595 43.9029C0.894844 44 0.93043 44.1055 0.959636 44.2052L1.02184 44.4319C1.22413 45.171 1.4261 45.9086 1.71247 46.609C2.2231 47.8613 2.91648 48.9789 3.69771 49.9765C3.90972 50.2465 4.12168 50.5152 4.33335 50.7837L4.34359 50.7968Z" fill="black"/>
<path d="M48.027 22.3009C48.0304 22.3286 48.032 22.3423 48.0401 22.3618C48.032 22.3423 48.0287 22.3147 48.027 22.3009Z" fill="black"/>
<path d="M48.0039 22.1571L48.0122 22.2262C48.0042 22.2067 48.0009 22.1791 48.0039 22.1571Z" fill="black"/>
<path d="M20.6204 17.9742C20.1114 19.968 19.9784 22.059 19.8595 24.1255C19.8243 24.7731 20.0501 25.3671 20.4342 25.7182C20.6254 25.8869 20.8542 25.99 21.1078 26.0163C21.8446 26.0865 22.5919 25.3515 22.6455 24.3871C22.7191 23.1197 22.8102 21.8553 22.9537 20.6001C23.0341 20.0912 23.1367 19.5772 23.252 19.0744C23.3583 18.6376 23.4884 18.2096 23.6296 17.7789C23.8147 17.2883 24.0236 16.8065 24.2517 16.3414C24.7204 15.4226 25.2291 14.5512 25.7745 13.6999C25.8411 13.5989 25.9092 13.4992 25.9786 13.4007C26.0002 13.3701 26.0218 13.3396 26.0437 13.3092C26.1036 13.226 26.1644 13.1436 26.2262 13.062C26.2356 13.0457 26.2467 13.0431 26.2561 13.0267C26.8765 12.513 27.0733 11.4159 26.6942 10.6373C26.2943 9.82807 25.4313 9.60957 24.7696 10.1115C24.3254 10.4433 23.9691 10.9962 23.6441 11.5009L23.5888 11.5866C23.1484 12.2715 22.7051 12.9784 22.3175 13.7222L22.2197 13.9114C21.9055 14.5192 21.5885 15.1324 21.3275 15.7852C21.0441 16.4975 20.8132 17.219 20.6204 17.9742Z" fill="black"/>
<path d="M28.2446 35.1621C27.7442 34.4616 27.9024 33.281 28.4779 32.6783C29.1006 32.0434 29.9489 32.1872 30.4447 32.8959C30.4863 32.9573 30.5199 32.9993 30.5551 33.055C30.6829 33.2171 30.809 33.3654 30.9462 33.511C31.3608 33.9262 31.7925 34.2947 32.2336 34.6467C33.3164 35.4629 34.4274 36.2202 35.5375 36.9769L35.5391 36.9781L35.5453 36.9824L35.5573 36.9908C35.9176 37.2363 36.2778 37.4817 36.6367 37.7291C37.3002 38.1787 37.5686 39.2175 37.1914 40.0937C36.8376 40.929 35.9535 41.3334 35.2947 40.8756C34.4196 40.2764 33.5381 39.6715 32.6676 39.064L32.3974 38.876C31.5508 38.2877 30.6901 37.6895 29.9011 36.9935C29.2939 36.4456 28.7388 35.8571 28.2446 35.1621Z" fill="black"/>
<path d="M52.4048 38.8086C52.4146 39.0763 52.4861 39.3367 52.5938 39.5674C52.6934 39.7787 52.8259 39.9326 52.9725 40.0619C53.1191 40.1912 53.2781 40.2821 53.4545 40.376C53.6667 40.4837 53.9158 40.4985 54.1419 40.5119L54.1998 40.5153C54.4121 40.5299 54.6275 40.5225 54.8458 40.4931C55.3174 40.4403 55.7826 40.3818 56.2571 40.307L59.6833 39.7022C61.4945 39.3877 63.2958 39.04 65.0972 38.6922C65.8533 38.5448 66.3771 37.5635 66.271 36.6433C66.1535 35.6761 65.4337 35.0904 64.6777 35.2377L64.6739 35.2385L64.6723 35.2389C61.6895 35.8134 58.7066 36.388 55.7171 36.8624C55.2824 36.9221 54.8379 36.9828 54.399 37.0023C54.1542 36.8603 53.8751 36.8115 53.5873 36.8784C52.868 37.0457 52.3464 37.9058 52.4048 38.8086Z" fill="black"/>
</svg>
