<svg width="35" height="30" viewBox="0 0 35 30" fill="none" xmlns="http://www.w3.org/2000/svg">
<path fill-rule="evenodd" clip-rule="evenodd" d="M1.8523 1.37671C1.94358 1.39403 2.03516 1.41666 2.12593 1.4391C2.15648 1.44665 2.18693 1.45418 2.21725 1.46148C2.23953 1.46585 2.2622 1.46877 2.28487 1.47169C2.30753 1.47461 2.3302 1.47752 2.35248 1.4819C2.47918 1.48754 2.60745 1.48735 2.7373 1.48134C3.05366 1.45628 3.36676 1.40848 3.67929 1.35115C4.30432 1.22555 4.92559 1.08146 5.546 0.937571L5.54649 0.937472C5.83501 0.870567 6.12334 0.803708 6.41179 0.738767C7.41921 0.516624 8.44662 0.406074 9.47952 0.356369C9.8468 0.338194 10.2153 0.341035 10.583 0.343878C10.7104 0.344856 10.8376 0.345832 10.9647 0.345947C11.3437 0.343828 11.7164 0.36503 12.0891 0.386241C12.4633 0.401615 12.8397 0.420692 13.2108 0.447728C13.6734 0.483525 14.1355 0.518391 14.5975 0.553253C15.0596 0.588116 15.5216 0.622982 15.9842 0.65878C16.0131 0.661787 16.0428 0.664264 16.0726 0.66674C16.1025 0.669218 16.1324 0.671696 16.1613 0.674722C17.1638 0.726286 18.1679 0.772026 19.173 0.802399C20.3509 0.841334 21.5189 0.940146 22.6663 1.20847C22.9768 1.28156 23.286 1.36591 23.5958 1.45039C23.9872 1.55715 24.3793 1.66411 24.7755 1.74877C25.0232 1.79291 25.2725 1.83123 25.5227 1.85418C25.8647 1.87344 26.2055 1.87365 26.5473 1.8585C27.1711 1.81849 27.7947 1.74407 28.4135 1.65274C28.7048 1.59288 28.994 1.52934 29.2805 1.45257C29.4915 1.39776 29.6974 1.32907 29.9037 1.26018C29.9703 1.23795 30.037 1.21569 30.1039 1.19388C30.4291 1.08939 30.7689 1.06573 31.1077 1.04215L31.1103 1.04198C31.1916 1.03631 31.2728 1.03065 31.3537 1.02385C31.7003 0.991213 32.0474 0.968093 32.3935 0.96034C32.7586 0.951418 33.0745 1.24185 33.1371 1.58981C33.3434 1.45102 33.6189 1.41507 33.8561 1.50956C34.2446 1.66936 34.4162 2.112 34.2665 2.49397C34.2011 2.66861 34.0582 2.81421 33.9209 2.95416C33.8705 3.00549 33.8209 3.05608 33.7761 3.10705C33.5875 3.31931 33.3974 3.5374 33.2111 3.75336C33.2203 3.74383 33.2291 3.73363 33.2382 3.72316C33.2504 3.70908 33.2631 3.69451 33.2776 3.68046C33.0555 3.94207 32.832 4.203 32.6084 4.46407C32.1219 5.03206 31.6347 5.60083 31.1598 6.17863C30.9186 6.47059 30.6773 6.76255 30.4419 7.05607C30.4034 7.10329 30.3641 7.14998 30.3249 7.19656C30.2404 7.2969 30.1563 7.39681 30.0813 7.50062L30.0738 7.51098C29.7043 8.01778 29.3348 8.52455 28.9691 9.02923C28.6554 9.50934 28.3438 9.9908 28.0321 10.4723L28.0307 10.4744C27.4703 11.3403 26.9098 12.2064 26.3369 13.0654C25.8375 13.8167 25.33 14.5627 24.8125 15.2998C24.3092 16.0188 23.8038 16.7341 23.2962 17.4458C21.4597 20.0376 19.6418 22.6532 17.877 25.2924C17.4668 25.9331 17.0565 26.5737 16.6542 27.2197C16.5332 27.4141 16.414 27.6118 16.2948 27.8096L16.2941 27.8107C16.2345 27.9097 16.1748 28.0086 16.1149 28.1072C16.0805 28.1642 16.0466 28.2209 16.0129 28.2772C15.9526 28.3779 15.8929 28.4776 15.8324 28.5757C15.8088 28.6149 15.7871 28.6555 15.7655 28.6959C15.7248 28.7718 15.6844 28.8473 15.6321 28.9129C15.5091 29.0676 15.3796 29.1769 15.2028 29.2642C14.9166 29.4098 14.5259 29.4088 14.2924 29.1496C14.2807 29.1365 14.2688 29.1234 14.2567 29.1103C14.2414 29.0936 14.2258 29.077 14.2101 29.0603C14.119 28.963 14.0257 28.8633 13.9661 28.747C13.8562 28.5396 13.7787 28.3283 13.7005 28.1075C13.6647 28.0026 13.6264 27.8979 13.5882 27.7932C13.55 27.6884 13.5117 27.5837 13.4758 27.4788C13.4592 27.4308 13.443 27.3826 13.4268 27.3343L13.4266 27.3336C13.3778 27.1882 13.329 27.0428 13.2678 26.9046C13.0914 26.4794 12.913 26.0506 12.7308 25.6239C12.6158 25.3479 12.4859 25.075 12.3563 24.8026L12.356 24.8019C12.3124 24.7102 12.2688 24.6185 12.2258 24.5268C12.0875 24.2274 11.9471 23.9243 11.8051 23.6271C11.5796 23.1443 11.3552 22.6608 11.1307 22.1774C10.6069 21.0491 10.083 19.9209 9.54645 18.8C9.51469 18.7321 9.482 18.6648 9.4493 18.5975L9.44871 18.5963C9.41622 18.5294 9.38374 18.4625 9.35217 18.395C9.24328 18.188 9.136 17.9805 9.02879 17.7731L9.02766 17.7709C8.7871 17.3057 8.54677 16.8408 8.28965 16.3836L8.28675 16.3785C7.86228 15.6262 7.43558 14.87 7.02959 14.1071C6.96478 13.9869 6.89856 13.8676 6.83235 13.7482C6.68334 13.4797 6.53434 13.2111 6.40131 12.9333C6.19581 12.5004 5.98817 12.0638 5.77896 11.633C5.46795 10.9836 5.16694 10.3369 4.86328 9.68443L4.86306 9.68397L4.78927 9.52543C4.7513 9.4501 4.71339 9.37474 4.67547 9.29936L4.67517 9.29877C4.40788 8.76751 4.14041 8.23589 3.85143 7.7129C3.59875 7.2496 3.33357 6.79349 3.0684 6.33739L3.06805 6.33679C2.97964 6.18473 2.89123 6.03267 2.80328 5.88034C2.46423 5.29308 2.13998 4.69727 1.84166 4.08649C1.69171 3.78401 1.54333 3.47569 1.3971 3.17109C1.35894 3.09217 1.32024 3.01231 1.28155 2.93247L1.28017 2.92961C1.24194 2.85072 1.20371 2.77183 1.166 2.69385C1.1508 2.66324 1.13506 2.63169 1.11931 2.60015C1.10356 2.56861 1.08783 2.53708 1.07262 2.50645C0.996296 2.3486 0.973512 2.18939 0.995725 2.01406C1.02411 1.78099 1.17818 1.56892 1.37815 1.45346C1.52528 1.3833 1.68789 1.34852 1.8523 1.37671ZM7.46947 2.08321L7.46008 2.07784C8.06497 1.97942 8.67131 1.90908 9.28208 1.8788C9.26678 1.88065 9.25147 1.88249 9.23595 1.88393L9.18299 1.88677C9.20113 1.88666 9.21868 1.88555 9.23595 1.88393C9.74268 1.85774 10.2509 1.85787 10.7584 1.85802C10.9042 1.85807 11.0499 1.85811 11.1955 1.85752C11.3742 1.85935 11.5535 1.86964 11.7327 1.87993C11.8223 1.88507 11.9122 1.89021 12.0018 1.8943C12.1928 1.90043 12.3829 1.90955 12.5742 1.91873L12.5757 1.91882C12.6383 1.92183 12.7011 1.92485 12.7641 1.92776C12.7766 1.92884 12.7893 1.9296 12.8023 1.92953L12.7641 1.92776C12.7555 1.92703 12.7471 1.92616 12.7388 1.92529C12.727 1.92406 12.7155 1.92285 12.7042 1.92214C12.9802 1.94256 13.2567 1.9639 13.5332 1.98526C13.8097 2.00662 14.0862 2.02796 14.3621 2.04838C14.5723 2.06382 14.7824 2.08125 14.9926 2.0987L14.9937 2.09878C15.3658 2.12966 15.7382 2.16057 16.1122 2.18045L16.1756 2.18407C15.7521 2.41728 15.5748 2.94967 15.5974 3.41829L15.5976 3.42083L15.5976 3.42188C15.6145 3.74078 15.6309 4.05029 15.6668 4.36808C15.6695 4.3813 15.6722 4.39452 15.6734 4.41357C15.465 4.09553 15.2605 3.77537 15.0654 3.45462C15.0124 3.36705 14.9589 3.27974 14.9054 3.19244C14.7449 2.93052 14.5844 2.66858 14.4364 2.39945C14.237 2.0369 13.7553 1.92102 13.4035 2.12414C13.1961 2.24387 13.0685 2.4505 13.0375 2.67035C12.8081 2.3842 12.5092 2.0889 12.1411 2.0158C11.7168 1.93082 11.2907 1.94539 10.9439 2.23423C10.7906 2.36213 10.6767 2.54116 10.5994 2.72368C10.5174 2.9237 10.4412 3.12527 10.4059 3.33774C10.3877 3.45165 10.3716 3.56926 10.3651 3.68628C10.1144 3.52571 9.84418 3.39118 9.57024 3.25879C9.44768 3.06361 9.27967 2.90946 9.09786 2.74849C8.95219 2.61591 8.79171 2.49188 8.62123 2.39332L8.59327 2.37645C8.48007 2.30809 8.35891 2.23494 8.23786 2.19113C7.99321 2.10092 7.73173 2.04998 7.46947 2.08321ZM17.7124 2.7882C17.5462 2.59735 17.346 2.38166 17.1159 2.2372C17.3343 2.24857 17.5529 2.25871 17.7716 2.26647C17.9058 2.27093 18.04 2.27521 18.1743 2.2795L18.1776 2.27962C18.2851 2.28306 18.3926 2.2865 18.5001 2.29002C18.3422 2.58164 18.3043 2.8869 18.3599 3.21705C18.3837 3.3609 18.4186 3.49833 18.4535 3.63577C18.3942 3.56707 18.337 3.50204 18.2798 3.43702L18.279 3.43613C18.2161 3.36418 18.1528 3.29246 18.0894 3.22075C17.9626 3.0772 17.8359 2.93365 17.7124 2.7882ZM21.7126 2.92622C21.5821 2.75399 21.4368 2.59513 21.2643 2.48072C21.4813 2.5118 21.6976 2.54775 21.9129 2.58897C21.958 2.5985 22.0032 2.60831 22.0482 2.61839C21.9806 2.66989 21.9159 2.72309 21.8552 2.77986C21.8045 2.82884 21.7575 2.87568 21.7126 2.92622ZM25.9641 3.39686L25.9514 3.37956C26.0907 3.38166 26.2304 3.3799 26.3706 3.37395C26.5012 3.3678 26.6315 3.36031 26.7617 3.35152C26.7219 3.37884 26.6839 3.40966 26.6485 3.44491C26.5223 3.57689 26.4339 3.76583 26.4101 3.947C26.3552 4.34802 26.4605 4.76985 26.5805 5.14872C26.6416 5.34 26.7137 5.52487 26.8066 5.70274C26.7927 5.82404 26.7729 5.94378 26.7532 6.06352C26.6087 5.82189 26.4309 5.5995 26.222 5.40005C26.2129 5.39295 26.2043 5.3844 26.1957 5.37585C26.187 5.36729 26.1784 5.35873 26.1693 5.35164C26.1979 5.18738 26.2244 5.01944 26.2414 4.85207C26.297 4.36687 26.2506 3.80761 25.9641 3.39686ZM28.0453 3.62343C27.9777 3.4758 27.8671 3.34903 27.7325 3.2637C28.0312 3.23077 28.3269 3.1874 28.6221 3.13676C28.5585 3.23186 28.514 3.34211 28.4895 3.46056C28.454 3.63862 28.4661 3.77935 28.5012 3.9512C28.5197 4.04223 28.5624 4.13366 28.6034 4.22157L28.6054 4.22587C28.6041 4.30012 28.6006 4.37069 28.5972 4.44126L28.5971 4.44242C28.5822 4.57907 28.5652 4.71203 28.5407 4.84927C28.5088 4.99078 28.4727 5.1249 28.4329 5.26117C28.4292 5.27495 28.4241 5.28644 28.4181 5.30027L28.4129 5.3121C28.4076 5.32007 28.3987 5.33018 28.3955 5.34184C28.3922 5.34094 28.3907 5.34057 28.3897 5.3397C28.389 5.33906 28.3885 5.33816 28.3875 5.33659C28.3818 5.33152 28.3761 5.32644 28.37 5.32069C28.3653 5.31631 28.3604 5.31154 28.3551 5.30607C28.3585 5.20072 28.3581 5.0975 28.3557 4.99059C28.3475 4.75402 28.3371 4.51374 28.2871 4.28164C28.237 4.04954 28.1462 3.84095 28.0453 3.62343ZM30.7516 2.63219C30.7421 2.61933 30.7322 2.60685 30.722 2.59475C31.0445 2.54491 31.3707 2.52143 31.6966 2.49798L31.697 2.49794C31.7931 2.49103 31.8892 2.48413 31.9851 2.47655C32.0995 2.46956 32.2161 2.46626 32.3327 2.46296C31.9687 2.88079 31.6082 3.29658 31.2518 3.71929C31.218 3.52957 31.1699 3.34231 31.0953 3.16755C31.0893 3.15448 31.0834 3.14112 31.0774 3.12755L31.0663 3.10224C31.0201 2.99693 30.9699 2.88244 30.8953 2.79548L30.766 2.64851C30.7601 2.64695 30.7559 2.63957 30.7516 2.63219ZM28.206 6.86953C28.3453 6.89962 28.4951 6.90983 28.6391 6.89315L28.6365 6.89677C28.5516 7.01475 28.4661 7.13182 28.3806 7.24889C28.2952 7.36596 28.2097 7.48303 28.1247 7.60102C27.6924 8.19091 27.2933 8.80263 26.8929 9.41619L26.8923 9.41713C26.812 9.54021 26.7317 9.66337 26.651 9.78645C26.3452 10.2563 26.0398 10.7315 25.7351 11.2056L25.733 11.2089L25.6402 11.3533C25.6733 11.2301 25.7054 11.1069 25.7375 10.9836L25.7626 10.8903C25.9533 10.7062 26.0875 10.4822 26.2229 10.2564C26.2675 10.182 26.3123 10.1072 26.3592 10.0337C26.4006 9.97021 26.4424 9.90686 26.4843 9.84344L26.4868 9.83966L26.487 9.83924C26.6005 9.66732 26.7142 9.49504 26.8207 9.31915C26.915 9.16616 26.9919 9.00853 27.055 8.84407C27.3398 8.57622 27.5517 8.24207 27.7334 7.8811C27.8977 7.54987 28.0248 7.20562 28.1206 6.8499C28.1477 6.85399 28.1769 6.86175 28.206 6.86953ZM24.0493 13.5588C24.091 13.5588 24.1335 13.5559 24.1762 13.5502C24.0138 13.7819 23.8516 14.0139 23.6894 14.2459C23.3651 14.7098 23.0408 15.1738 22.7146 15.6344C22.5951 15.8034 22.4757 15.9724 22.3562 16.1415C22.4186 16.0052 22.4745 15.8671 22.5268 15.7281C22.8272 14.9144 23.0237 14.0574 23.1338 13.196C23.1809 13.1836 23.228 13.1712 23.2746 13.1492C23.2942 13.1634 23.3133 13.1796 23.3328 13.1962C23.3472 13.2083 23.3619 13.2208 23.3772 13.2328C23.5617 13.407 23.7811 13.5561 24.0493 13.5588ZM20.2964 17.8431C20.7034 17.8404 21.0941 17.696 21.4251 17.4614C20.8554 18.2707 20.2869 19.0815 19.7223 19.8933C19.3332 20.4531 18.9456 21.0138 18.5599 21.5757C18.5575 21.4256 18.549 21.2754 18.5369 21.1243C18.6036 21.0111 18.6661 20.8951 18.7282 20.7798L18.7285 20.7794C18.7522 20.7353 18.776 20.6912 18.7998 20.6475C18.8568 20.5422 18.9144 20.4369 18.972 20.3314C19.2359 19.8486 19.5017 19.3623 19.7189 18.8611C19.8656 18.5252 20.0103 18.1856 20.1178 17.833C20.1777 17.8427 20.2371 17.8429 20.2964 17.8431ZM17.3942 23.2866C17.5248 23.0934 17.6557 22.9003 17.7868 22.7074C17.6522 22.7068 17.5304 22.6694 17.4218 22.6053C17.4292 22.8318 17.4206 23.0609 17.3942 23.2866ZM16.3482 24.7567C16.3727 24.7545 16.3968 24.7514 16.4206 24.7472C16.3844 24.8029 16.3482 24.8586 16.3121 24.9144C16.2755 24.9709 16.239 25.0275 16.2026 25.0841C16.2543 24.9758 16.3012 24.8663 16.3482 24.7567ZM3.64544 2.89373C3.42423 2.93225 3.20232 2.96291 2.98079 2.98067C3.06294 3.14006 3.14139 3.30161 3.21772 3.45946C3.59595 4.19154 3.99426 4.90711 4.40795 5.62365C4.48834 5.76289 4.56939 5.90175 4.65042 6.04057L4.6714 6.07653C4.69522 6.05946 4.72009 6.04369 4.74589 6.02935C4.57539 5.44326 4.57604 4.83716 4.73469 4.24817C4.72302 4.24506 4.71134 4.24194 4.70337 4.2367C4.48748 4.15539 4.30667 3.96487 4.14907 3.79879L4.12462 3.77305C3.88601 3.52659 3.63589 3.2528 3.64544 2.89373ZM5.61267 7.67605C5.58754 7.66473 5.56235 7.65345 5.53709 7.64222C5.73902 8.04228 5.9409 8.44228 6.14074 8.83873C6.29251 9.14471 6.43579 9.45816 6.57867 9.77072L6.57887 9.77115L6.57933 9.77218C6.63466 9.8932 6.68992 10.0141 6.74558 10.1344C6.92762 10.5226 7.11178 10.9096 7.29634 11.2964C7.3174 11.2755 7.33931 11.2554 7.36198 11.2362C7.25468 11.0076 7.15479 10.7747 7.07184 10.5369C6.9825 10.2881 6.93232 10.0216 6.90122 9.75394C6.87607 9.52223 6.90232 9.28546 6.95988 9.06017C6.57067 8.69392 6.21423 8.29891 5.8726 7.89534C5.85105 7.87084 5.83043 7.84581 5.80981 7.82079L5.80943 7.82033C5.78893 7.79546 5.76843 7.77058 5.74702 7.74624C5.70347 7.72213 5.65993 7.69802 5.61267 7.67605ZM10.9863 18.2949C10.9299 18.1773 10.8734 18.0597 10.8168 17.9421L10.8312 17.9548C10.8644 17.9824 10.8967 18.0106 10.929 18.0387L10.9294 18.0391C10.9615 18.0671 10.9937 18.0951 11.0268 18.1226C11.0134 18.18 10.9999 18.2375 10.9863 18.2949ZM11.9819 20.3323C11.9773 20.3465 11.9725 20.3606 11.9678 20.3748C12.1206 20.7037 12.2725 21.0333 12.4241 21.3639C12.626 21.8014 12.8299 22.2377 13.034 22.6736C13.0266 22.6012 13.0202 22.5286 13.015 22.4558C12.977 22.005 12.9622 21.5604 12.9512 21.1137L12.9463 21.1105C12.9449 21.1096 12.9434 21.1087 12.942 21.1078C12.9374 21.1049 12.933 21.1026 12.9294 21.1017C12.682 20.9638 12.564 20.7168 12.5477 20.4405C12.5371 20.2596 12.5264 20.0785 12.5348 19.8964C12.5387 19.7407 12.5537 19.5843 12.5687 19.4271C12.5734 19.3774 12.5782 19.3277 12.5826 19.2779C12.5831 19.2702 12.5841 19.2635 12.5852 19.2567C12.5862 19.25 12.5872 19.2431 12.5877 19.2355C12.3821 19.5597 12.2039 19.8913 12.0216 20.2303L12.0214 20.2307L12.0049 20.2615C11.9974 20.2852 11.9897 20.3088 11.9819 20.3323ZM14.9486 27.0963C14.8717 26.8828 14.7927 26.6702 14.7114 26.4586C14.8249 26.4576 14.9402 26.4389 15.055 26.3996C15.2628 26.3283 15.435 26.2132 15.5815 26.0707C15.5402 26.137 15.4989 26.2034 15.4575 26.2698C15.2862 26.5448 15.1148 26.8199 14.9486 27.0963ZM6.47607 4.45917C6.44027 4.3715 6.40973 4.27585 6.38717 4.18546C6.38191 4.19343 6.37624 4.20287 6.37057 4.21229C6.36688 4.21842 6.3632 4.22456 6.35962 4.23029C6.3577 4.23337 6.3558 4.23632 6.35396 4.23911C6.29763 4.35535 6.25297 4.4747 6.20831 4.59406C6.19047 4.64868 6.17476 4.707 6.16276 4.76317C6.14817 4.84053 6.1373 4.91576 6.13225 4.99255C6.12851 5.03474 6.12966 5.0741 6.13089 5.11609L6.13169 5.14553C6.13888 5.23495 6.14819 5.32806 6.16492 5.4169L6.18749 5.5073L6.18806 5.50688C6.25767 5.45688 6.32729 5.40686 6.40272 5.3584C6.54501 5.27132 6.69 5.19747 6.83926 5.131C6.6965 4.91794 6.57439 4.69789 6.47607 4.45917ZM12.7028 5.79377C12.6289 5.41782 12.5285 5.04731 12.4113 4.68166C12.3449 4.49834 12.2733 4.323 12.1922 4.14825C12.1185 4.00362 12.0338 3.8654 11.9454 3.72932C11.935 3.71619 11.9247 3.70306 11.9154 3.69018C11.9105 3.68342 11.9059 3.67673 11.9017 3.67016C11.8994 3.66665 11.8973 3.66317 11.8953 3.65974C11.8907 3.71159 11.8824 3.76557 11.8741 3.81956C11.8692 3.93075 11.8679 4.03995 11.8704 4.14687C11.8803 4.24951 11.8918 4.34631 11.909 4.44467C11.9322 4.54459 11.9568 4.63867 11.9874 4.73431C12.0237 4.8315 12.0638 4.92657 12.106 5.02532C12.1711 5.15517 12.2452 5.27493 12.3251 5.39623C12.4103 5.50956 12.4933 5.61919 12.5859 5.72825C12.6269 5.77354 12.6716 5.8167 12.7162 5.85987C12.7093 5.83925 12.706 5.81651 12.7028 5.79377ZM9.2761 7.58993C9.33512 7.4869 9.41434 7.40177 9.51007 7.33666C9.49163 7.3293 9.4732 7.32199 9.4548 7.31472C9.43369 7.30638 9.4126 7.29808 9.39155 7.2898C9.14973 7.1947 8.91178 7.10111 8.68935 6.95853C8.5502 6.87143 8.41788 6.77055 8.28713 6.66382L8.31059 6.70445C8.37501 6.79037 8.43943 6.87629 8.51126 6.95794C8.60329 7.05747 8.69689 7.15118 8.80003 7.24429C8.95097 7.3689 9.10562 7.49137 9.26555 7.60588C9.2679 7.60453 9.27087 7.60083 9.27313 7.59681C9.27444 7.59449 9.27552 7.59207 9.2761 7.58993ZM12.665 7.68692C12.3199 7.51681 12.0075 7.28352 11.7315 7.01933C11.7284 7.0309 11.7255 7.04234 11.7227 7.05371C11.7199 7.06529 11.7172 7.07682 11.7145 7.08834C11.7106 7.10502 11.7067 7.1217 11.7024 7.13858C11.7008 7.14474 11.6992 7.15093 11.6975 7.15716C11.8882 7.27361 12.063 7.41396 12.2326 7.56229C12.3575 7.66745 12.4772 7.7806 12.5931 7.89588C12.6075 7.8425 12.6274 7.78879 12.647 7.73594L12.6475 7.73461C12.6534 7.71861 12.6593 7.70271 12.665 7.68692ZM9.47192 11.8204C9.28829 11.2715 9.14069 10.7165 9.03282 10.1533L9.02911 10.1555C8.86381 10.177 8.71062 10.1768 8.55788 10.1517C8.62792 10.3329 8.70693 10.504 8.78808 10.6787C8.99033 11.0889 9.20795 11.5 9.43826 11.8989C9.44843 11.9113 9.45918 11.9238 9.47018 11.9365L9.48498 11.9534C9.50512 11.9765 9.52574 12.0001 9.54521 12.0243C9.53229 11.9888 9.51937 11.9532 9.50674 11.9182C9.49479 11.885 9.48311 11.8523 9.47192 11.8204ZM17.4151 5.21531C17.4056 5.21589 17.3939 5.2128 17.3881 5.21124C17.3844 5.21337 17.3785 5.21182 17.3764 5.20812C17.3746 5.20915 17.3728 5.21004 17.3711 5.2108C17.3699 5.21132 17.3687 5.21179 17.3676 5.21222C17.362 5.21422 17.3565 5.21522 17.3503 5.21636C17.3478 5.21681 17.3452 5.21728 17.3425 5.21784C17.3313 5.22431 17.3193 5.22943 17.307 5.23401C17.299 5.237 17.2908 5.23976 17.2827 5.24253C17.2828 5.27694 17.2866 5.3092 17.2904 5.34147C17.3164 5.3265 17.346 5.3094 17.3777 5.29599C17.3877 5.27052 17.4014 5.24292 17.4151 5.21531ZM15.2169 9.66087C15.2604 9.03494 15.2652 8.40181 15.2398 7.77628C15.159 7.96635 15.077 8.15415 14.9938 8.34429L14.9923 8.34785L14.9263 8.49899C14.8387 8.70032 14.7582 8.90631 14.6778 9.1123L14.6774 9.11335C14.6371 9.21647 14.5968 9.31959 14.5556 9.42212C14.4939 9.57599 14.4316 9.72891 14.3693 9.88184C14.307 10.0348 14.2446 10.1877 14.1829 10.3416C14.2369 10.3153 14.2871 10.2912 14.3411 10.265C14.5962 10.1423 14.9203 10.2162 15.1303 10.4003C15.1676 10.1571 15.197 9.90871 15.2169 9.66087ZM10.8038 10.8347L10.7656 10.7345C10.74 10.6673 10.7148 10.6007 10.6905 10.5358C10.6804 10.5268 10.6724 10.5216 10.6586 10.5148C10.7279 10.7801 10.8067 11.0449 10.8929 11.3054C11.0085 11.6424 11.1373 11.9768 11.2736 12.3069C11.1959 12.0612 11.1173 11.816 11.0387 11.5708C10.9601 11.3256 10.8815 11.0805 10.8038 10.8347ZM16.8674 9.50077C16.827 9.30249 16.7962 9.10364 16.7674 8.90847C16.7623 9.11324 16.7571 9.31836 16.7424 9.52371C16.7859 9.51341 16.8277 9.50893 16.8659 9.50661L16.8674 9.50077ZM23.6279 7.64626C23.6097 7.59766 23.5937 7.55277 23.5792 7.50203C23.5182 7.31075 23.4841 7.12355 23.5126 6.92489C23.5287 6.80728 23.5723 6.70329 23.6319 6.60979C23.5867 6.57695 23.5447 6.54219 23.5027 6.50744C23.4915 6.49816 23.4802 6.48875 23.4689 6.47951C23.459 6.47138 23.449 6.46329 23.439 6.45524C23.4087 6.42841 23.3821 6.39944 23.3555 6.37048C23.3367 6.37641 23.3188 6.3818 23.3009 6.38719C23.2831 6.39258 23.2652 6.39797 23.2464 6.40391L23.2413 6.40585L23.2404 6.40618C23.145 6.44196 23.0497 6.47771 22.9579 6.51139C22.9722 6.59169 22.9879 6.67235 23.0037 6.75304C23.0195 6.83378 23.0353 6.91488 23.0496 6.99523C23.0477 6.97915 23.0449 6.96361 23.0421 6.94807C23.0406 6.94031 23.0392 6.93256 23.0379 6.92474C23.0366 6.91677 23.0354 6.90873 23.0345 6.90056C23.0567 6.99098 23.0785 7.08159 23.1004 7.17232L23.1005 7.17296C23.1507 7.38067 23.2009 7.58902 23.2558 7.79709C23.276 7.84493 23.2965 7.89129 23.3171 7.93767C23.3272 7.96051 23.3374 7.98337 23.3474 8.0064C23.3576 8.02951 23.3676 8.0528 23.3776 8.07644C23.4306 7.98303 23.4846 7.89111 23.5379 7.80029C23.5682 7.74862 23.5983 7.6973 23.6279 7.64626ZM21.8067 8.27057C21.8064 8.26899 21.8064 8.26728 21.8063 8.26562C21.8062 8.26476 21.8061 8.26391 21.8059 8.2631C21.8057 8.26214 21.8055 8.26124 21.805 8.26044C21.7516 8.1337 21.6944 8.0091 21.6373 7.88449C21.6405 7.90261 21.6439 7.91995 21.6474 7.93707C21.6533 7.96642 21.6594 7.99514 21.6648 8.02619C21.7279 8.34928 21.7608 8.67993 21.7725 9.00805C21.8402 8.95421 21.9121 8.90775 21.9947 8.87977C21.926 8.68866 21.8727 8.50165 21.8186 8.31185L21.8077 8.27366C21.8072 8.27274 21.8069 8.27169 21.8067 8.27057ZM13.9395 13.6831C13.7285 13.6769 13.522 13.5843 13.3788 13.3961C13.3481 13.3542 13.3173 13.3126 13.2865 13.2712C13.2006 13.1554 13.1153 13.0405 13.0348 12.9201L13.1635 13.3481C13.2507 13.5932 13.3601 13.8255 13.4696 14.0578C13.4957 14.1117 13.5234 14.1597 13.5533 14.2114C13.6868 14.0408 13.8182 13.8664 13.9395 13.6831ZM17.8254 13.2125C17.8397 13.0663 17.897 12.9347 17.9624 12.8083C17.8086 12.4736 17.6665 12.142 17.5371 11.7981L17.5234 11.7801C17.4447 11.6761 17.3639 11.5694 17.2784 11.4698C17.2066 11.3881 17.131 11.3086 17.0555 11.2291C17.0504 11.2713 17.0438 11.3132 17.0372 11.355C17.0306 11.397 17.0239 11.4394 17.0187 11.4818C17.0772 11.5318 17.1362 11.5912 17.1804 11.6593C17.4734 12.0811 17.6208 12.6017 17.7306 13.0997C17.7618 13.2393 17.7856 13.3832 17.8036 13.5254C17.8047 13.5085 17.8058 13.4917 17.8068 13.475L17.8087 13.4448C17.8137 13.3663 17.8185 13.29 17.8254 13.2125ZM25.7652 7.85029L25.7649 7.74707C25.7594 7.68623 25.7518 7.62168 25.7441 7.55715L25.7332 7.50967C25.7141 7.42646 25.6954 7.34485 25.6711 7.25954L25.6037 7.09158C25.5873 7.12811 25.5708 7.16465 25.5541 7.20134C25.5312 7.25153 25.5078 7.30202 25.4832 7.35323C25.5373 7.5239 25.5834 7.68933 25.628 7.86058L25.6922 7.8777C25.7134 7.88023 25.7288 7.88119 25.75 7.88372C25.7537 7.88158 25.7595 7.88314 25.7653 7.8847C25.7648 7.87518 25.7642 7.86565 25.7652 7.85029ZM13.9464 15.7475C13.6562 15.8264 13.3138 15.832 13.0388 15.715C13.0054 15.6998 12.9778 15.6862 12.9443 15.6711C12.9311 15.8363 12.9178 16.0015 12.8988 16.1652C12.8639 16.5153 12.8099 16.8665 12.7501 17.2162C12.7825 17.2123 12.8132 17.2143 12.844 17.2162C12.8515 17.1823 12.8582 17.1489 12.8648 17.1155C12.8715 17.0822 12.8781 17.0488 12.8857 17.0149C12.9526 16.7202 13.2285 16.4968 13.5231 16.4597C13.6201 16.4481 13.7123 16.4539 13.7998 16.4772C13.8467 16.2335 13.8936 15.9897 13.9464 15.7475ZM20.5124 11.8286C20.2768 11.9252 20.0151 11.9679 19.7627 11.9413C19.748 11.9842 19.7392 12.0287 19.7266 12.0754C19.7104 12.1586 19.698 12.2397 19.6877 12.3244C19.7014 12.3482 19.7155 12.3719 19.7297 12.3955C19.7397 12.4121 19.7498 12.4287 19.7599 12.4452C19.7843 12.4853 19.8086 12.5254 19.8321 12.566C20.0362 12.9121 20.2037 13.2794 20.37 13.644C20.3944 13.6974 20.4187 13.7507 20.4431 13.8039C20.7724 13.6729 21.1812 13.7225 21.4913 13.8833C21.6002 13.3279 21.6747 12.7728 21.72 12.2098C21.6651 12.1233 21.6177 12.0325 21.5702 11.9418C21.4987 11.8008 21.4479 11.6529 21.4124 11.5059C21.3564 11.4988 21.2996 11.4923 21.2427 11.4857C21.1858 11.4791 21.129 11.4726 21.073 11.4655C21.064 11.4756 21.0555 11.4842 21.0469 11.4929C21.0383 11.5015 21.0297 11.5102 21.0207 11.5203C20.9483 11.5916 20.8674 11.6482 20.7786 11.6995C20.6934 11.7487 20.6039 11.7905 20.5124 11.8286ZM17.9683 15.7351L17.9737 15.924L18.0391 15.9602C18.0118 15.8873 17.9882 15.8122 17.9683 15.7351ZM15.7405 18.7695C15.7585 18.7493 15.7764 18.7291 15.7965 18.7126C15.8264 18.6018 15.8562 18.491 15.8839 18.3765C15.8267 18.2175 15.7864 18.0536 15.7556 17.8892C15.5653 18.201 15.3771 18.5164 15.2006 18.835C15.3196 18.9042 15.4227 18.9973 15.4931 19.1192C15.5452 18.9935 15.6398 18.885 15.7323 18.779L15.7405 18.7695ZM18.2182 18.5111C18.3682 18.198 18.5007 17.8802 18.621 17.5497C18.4054 17.5954 18.1785 17.5787 17.9573 17.5291L17.9375 17.7769C17.9153 18.0405 17.8473 18.294 17.7787 18.5495L17.7783 18.5511C17.7635 18.6061 17.7487 18.6612 17.7344 18.7166C17.8253 18.7971 17.9088 18.8818 17.9812 18.973C18.0623 18.8227 18.1413 18.6688 18.2182 18.5111ZM15.9121 22.5561C15.8955 22.3391 15.8693 22.1227 15.8315 21.9033C15.7938 21.7182 15.7523 21.5353 15.7056 21.3604L15.7019 21.3625C15.7018 21.4093 15.7023 21.4571 15.7027 21.5049C15.7031 21.5527 15.7035 21.6004 15.7034 21.6473C15.7049 21.7493 15.7062 21.851 15.7075 21.9525C15.7111 22.2352 15.7148 22.5167 15.7215 22.799C15.721 22.8067 15.7215 22.8139 15.7219 22.821L15.722 22.8229C15.7223 22.8274 15.7225 22.8319 15.7224 22.8365C15.7224 22.8386 15.7224 22.8408 15.7222 22.843C15.7857 22.8161 15.8514 22.793 15.9176 22.7794C15.9131 22.7032 15.9107 22.6307 15.9121 22.5561Z" fill="black"/>
</svg>
