<svg width="33" height="33" viewBox="0 0 33 33" fill="none" xmlns="http://www.w3.org/2000/svg">
<path fill-rule="evenodd" clip-rule="evenodd" d="M31.7136 24.6387C31.6209 24.6456 31.5266 24.6474 31.4331 24.6493C31.4017 24.6499 31.3703 24.6505 31.3391 24.6513C31.3165 24.6528 31.2938 24.6559 31.2712 24.6589C31.2485 24.662 31.2259 24.665 31.2032 24.6665C31.0794 24.6939 30.9555 24.7273 30.8317 24.7667C30.5326 24.8728 30.2425 25 29.9555 25.1362C29.3842 25.4193 28.8214 25.7193 28.2594 26.0189L28.259 26.0191C27.9976 26.1584 27.7364 26.2976 27.4746 26.435C26.559 26.9103 25.5952 27.283 24.6103 27.5983C24.2603 27.711 23.9036 27.8036 23.5476 27.896C23.4244 27.928 23.3012 27.96 23.1785 27.9928C22.813 28.0929 22.4475 28.1689 22.082 28.2449C21.7165 28.3269 21.348 28.4059 20.9825 28.4758C20.5264 28.561 20.0711 28.6469 19.6158 28.7328C19.1604 28.8187 18.7051 28.9046 18.249 28.9898C18.2204 28.9943 18.191 28.9996 18.1616 29.005C18.1321 29.0103 18.1026 29.0156 18.0738 29.0202C17.0921 29.2299 16.1104 29.4456 15.1317 29.6764C13.9839 29.9436 12.8301 30.1505 11.6524 30.1883C11.3335 30.198 11.013 30.1966 10.6919 30.1952C10.2862 30.1933 9.87974 30.1915 9.47513 30.2123C9.22446 30.2338 8.97378 30.2613 8.72611 30.3039C8.39083 30.3738 8.06157 30.4618 7.7353 30.5649C7.14318 30.765 6.56007 30.9982 5.98599 31.2466C5.72008 31.3798 5.45718 31.5161 5.20031 31.6644C5.01068 31.7719 4.82966 31.8915 4.64813 32.0115C4.58956 32.0502 4.53093 32.089 4.47195 32.1273C4.18493 32.3124 3.86279 32.4232 3.54165 32.5337L3.53915 32.5346C3.46211 32.5611 3.38513 32.5876 3.30872 32.6151C2.98243 32.7363 2.65314 32.8484 2.32084 32.9455C1.97042 33.0486 1.5902 32.8499 1.43963 32.53C1.27632 32.7174 1.01951 32.8234 0.765894 32.7936C0.349246 32.7398 0.0689173 32.3566 0.11475 31.9489C0.132668 31.7633 0.233007 31.5857 0.329445 31.415C0.364829 31.3523 0.399678 31.2906 0.429746 31.2298C0.556911 30.976 0.684083 30.7161 0.80823 30.4593C0.801774 30.4709 0.795868 30.483 0.789813 30.4955C0.781664 30.5122 0.773236 30.5296 0.76282 30.5469C0.909664 30.2367 1.05801 29.9268 1.20643 29.6168C1.52935 28.9422 1.8527 28.2668 2.16184 27.5857C2.31932 27.2413 2.4768 26.8968 2.62824 26.5524C2.65321 26.4968 2.67908 26.4415 2.70491 26.3864C2.76054 26.2676 2.81592 26.1493 2.86145 26.0297L2.86607 26.0177C3.09178 25.4325 3.31748 24.8474 3.5402 24.2653C3.71889 23.7203 3.89527 23.1746 4.07168 22.6288L4.07247 22.6264C4.38968 21.645 4.70697 20.6633 5.03798 19.6854C5.32598 18.8304 5.62305 17.9785 5.93217 17.1326C6.23221 16.3078 6.53527 15.486 6.84135 14.6673C7.94446 11.6884 9.02344 8.69142 10.0451 5.68545C10.2755 4.96041 10.506 4.23538 10.7274 3.50734C10.794 3.28819 10.8579 3.06636 10.9218 2.84452L10.9222 2.84326C10.9542 2.73221 10.9862 2.62116 11.0186 2.51045C11.0371 2.44652 11.0552 2.38299 11.0732 2.31985C11.1053 2.20693 11.1372 2.09525 11.1703 1.98482C11.1829 1.94078 11.1933 1.89601 11.2038 1.85141C11.2234 1.76751 11.2428 1.68416 11.2764 1.60722C11.3552 1.42594 11.452 1.28689 11.6001 1.15685C11.839 0.942134 12.2166 0.841993 12.5092 1.03184C12.5239 1.04151 12.5388 1.05108 12.5539 1.06061C12.573 1.07272 12.5924 1.08477 12.6118 1.09687C12.725 1.16725 12.8409 1.23937 12.9286 1.33627C13.0884 1.50819 13.218 1.69222 13.3506 1.88531C13.4124 1.97733 13.4764 2.06858 13.5405 2.15985C13.6045 2.25111 13.6686 2.34238 13.7304 2.4344C13.7589 2.47645 13.787 2.51886 13.8151 2.56128L13.8155 2.56191C13.9003 2.68974 13.985 2.81757 14.08 2.9352C14.3603 3.30022 14.6437 3.66825 14.9301 4.03325C15.1127 4.27005 15.3087 4.50009 15.5044 4.7297L15.5049 4.73024C15.5708 4.80756 15.6366 4.88483 15.7019 4.9623C15.913 5.21568 16.127 5.47208 16.3411 5.72243C16.6838 6.13048 17.0258 6.53934 17.3677 6.94821C18.1657 7.90244 18.9637 8.85667 19.7721 9.80053C19.8204 9.85784 19.8694 9.91439 19.9184 9.97095L19.9193 9.97199C19.968 10.0282 20.0166 10.0844 20.0646 10.1414C20.2234 10.3132 20.3807 10.4858 20.5379 10.6584L20.5396 10.6602C20.8924 11.0474 21.2448 11.4342 21.6115 11.8092L21.6156 11.8134C22.2203 12.4302 22.8282 13.0502 23.4178 13.6821C23.5115 13.7814 23.6064 13.8795 23.7012 13.9777C23.9147 14.1985 24.1281 14.4193 24.3285 14.6532C24.639 15.0182 24.9526 15.3862 25.2662 15.7481C25.7347 16.2949 26.1928 16.8417 26.655 17.3933L26.6553 17.3937L26.7676 17.5278C26.8238 17.5907 26.8799 17.6537 26.9361 17.7167L26.9365 17.7172C27.3322 18.1612 27.7281 18.6054 28.1426 19.0358C28.5066 19.4179 28.8808 19.7899 29.255 20.1618L29.2555 20.1623C29.3803 20.2863 29.505 20.4103 29.6294 20.5346C30.1089 21.0141 30.5763 21.5057 31.0225 22.0185C31.2456 22.2719 31.4688 22.5313 31.6889 22.7876C31.7461 22.854 31.8042 22.9211 31.8622 22.9882L31.8643 22.9906C31.9216 23.0569 31.979 23.1232 32.0356 23.1888C32.0582 23.2144 32.0816 23.2408 32.1049 23.2672C32.1283 23.2936 32.1517 23.32 32.1743 23.3456C32.2889 23.4784 32.3521 23.6263 32.376 23.8014C32.4089 24.0338 32.315 24.2786 32.1517 24.4418C32.0278 24.5477 31.8797 24.6234 31.7136 24.6387ZM26.105 25.4101L26.1154 25.4129C25.5566 25.6645 24.9891 25.8894 24.407 26.0767C24.4213 26.0709 24.4356 26.0652 24.4502 26.0598L24.5007 26.0433C24.4832 26.0481 24.4665 26.0538 24.4502 26.0598C23.9676 26.2162 23.4766 26.3477 22.9864 26.4788C22.8456 26.5165 22.7048 26.5542 22.5643 26.5925C22.3912 26.637 22.2154 26.6734 22.0396 26.7099C21.9517 26.7281 21.8635 26.7464 21.7759 26.7656C21.5899 26.8091 21.4039 26.8495 21.2168 26.8902L21.2153 26.8905C21.154 26.9038 21.0926 26.9171 21.031 26.9306C21.0186 26.9328 21.0061 26.9354 20.9936 26.9388L21.031 26.9306C21.0394 26.9291 21.0478 26.9278 21.056 26.9264C21.0677 26.9246 21.0792 26.9228 21.0903 26.9205C20.8184 26.9722 20.5458 27.0232 20.2732 27.0741C20.0006 27.125 19.728 27.176 19.4562 27.2277C19.2491 27.2672 19.0417 27.3047 18.8342 27.3423L18.8331 27.3425C18.4657 27.4089 18.098 27.4755 17.7315 27.5531L17.6694 27.566C18.0181 27.2311 18.0516 26.671 17.9084 26.2242L17.9076 26.2218L17.9073 26.2208C17.8084 25.9171 17.7125 25.6224 17.5955 25.3247C17.5895 25.3126 17.5835 25.3006 17.5775 25.2825C17.861 25.5358 18.1415 25.7921 18.4129 26.0514C18.4868 26.1223 18.5611 26.1927 18.6353 26.2632C18.8581 26.4747 19.0809 26.6862 19.2935 26.9078C19.58 27.2064 20.0753 27.1937 20.3625 26.9064C20.5318 26.7371 20.6016 26.5045 20.5747 26.2841C20.8704 26.5011 21.2355 26.709 21.61 26.6843C22.0418 26.6566 22.4496 26.5322 22.7098 26.1635C22.8248 26.0003 22.8885 25.7979 22.9159 25.6015C22.9434 25.3871 22.9648 25.1727 22.9439 24.9583C22.932 24.8436 22.9171 24.7258 22.8931 24.6111C23.1768 24.7013 23.4726 24.7613 23.7715 24.8183C23.9404 24.9751 24.1426 25.0805 24.3599 25.1889C24.5349 25.2793 24.722 25.3576 24.9122 25.4087L24.9436 25.4177C25.0706 25.4544 25.2066 25.4937 25.3348 25.5047C25.5945 25.5285 25.8602 25.5101 26.105 25.4101ZM16.0286 27.3802C16.2385 27.5215 16.4877 27.6781 16.7473 27.758C16.5335 27.8036 16.3197 27.8503 16.1064 27.8995C15.9757 27.9299 15.8449 27.9605 15.7141 27.9911L15.7108 27.9919C15.6062 28.0163 15.5014 28.0408 15.3967 28.0653C15.4737 27.7427 15.4313 27.4381 15.2921 27.1335C15.2319 27.0008 15.1626 26.877 15.0933 26.7533C15.1684 26.8043 15.2405 26.8523 15.3126 26.9003L15.3136 26.901C15.393 26.9542 15.4727 27.0071 15.5525 27.06C15.7121 27.1658 15.8717 27.2717 16.0286 27.3802ZM12.129 28.2822C12.2996 28.4148 12.481 28.5306 12.6773 28.5965C12.4597 28.6226 12.2414 28.6439 12.0228 28.6598C11.9767 28.6623 11.9306 28.6645 11.8845 28.6664C11.9365 28.5992 11.9852 28.531 12.0291 28.4605C12.0654 28.4001 12.0987 28.3426 12.129 28.2822ZM7.90052 28.928L7.91727 28.9414C7.78215 28.9754 7.64765 29.0133 7.51384 29.0553C7.38928 29.095 7.26532 29.136 7.1418 29.1782C7.17325 29.1415 7.20191 29.1019 7.22696 29.0587C7.31475 28.8985 7.35125 28.6932 7.32734 28.512C7.27653 28.1105 7.06565 27.7302 6.85169 27.3953C6.74321 27.2264 6.62566 27.0665 6.48996 26.9187C6.472 26.7979 6.46008 26.6772 6.44816 26.5564C6.65022 26.7524 6.8795 26.9212 7.13297 27.0598C7.14353 27.0643 7.15409 27.0703 7.16465 27.0763C7.17522 27.0824 7.18578 27.0884 7.19634 27.0929C7.21123 27.259 7.22911 27.4281 7.25607 27.5941C7.32791 28.0772 7.51745 28.6054 7.90052 28.928ZM5.8316 29.2478C5.93513 29.3729 6.07473 29.4667 6.22686 29.5143C5.94686 29.6234 5.67249 29.7418 5.40042 29.8671C5.43726 29.7588 5.45167 29.6408 5.44472 29.5201C5.43288 29.3389 5.38474 29.2061 5.30643 29.0492C5.26495 28.966 5.20007 28.8888 5.13768 28.8145L5.13463 28.8108C5.1167 28.7388 5.10178 28.6697 5.08685 28.6006L5.0866 28.5995C5.06563 28.4637 5.04769 28.3308 5.03579 28.1919C5.02995 28.047 5.03014 27.9081 5.03334 27.7662C5.03336 27.7519 5.03525 27.7395 5.03754 27.7245L5.03946 27.7118C5.04248 27.7027 5.04854 27.6906 5.04856 27.6786C5.05204 27.6786 5.0535 27.6786 5.05471 27.6791C5.05559 27.6796 5.05633 27.6803 5.05761 27.6816C5.06446 27.685 5.07131 27.6884 5.07871 27.6924C5.08436 27.6954 5.09031 27.6987 5.09684 27.7027C5.12086 27.8053 5.1479 27.9049 5.17796 28.0075C5.24711 28.2339 5.31929 28.4633 5.42772 28.6746C5.53615 28.8858 5.67784 29.0638 5.8316 29.2478ZM3.47404 30.9057C3.48656 30.9156 3.49933 30.9251 3.51234 30.9342C3.21376 31.0658 2.90472 31.1729 2.59601 31.2799L2.59557 31.2801C2.50457 31.3116 2.41359 31.3431 2.32291 31.3753C2.21416 31.4116 2.10238 31.445 1.99061 31.4784C2.2341 30.9806 2.47467 30.4856 2.7095 29.9851C2.79129 30.1596 2.88625 30.328 3.00353 30.4775C3.01266 30.4886 3.02185 30.5 3.03114 30.5115L3.04843 30.5331C3.12029 30.6229 3.1984 30.7205 3.29302 30.7851L3.45594 30.8936C3.46198 30.8936 3.46801 30.8997 3.47404 30.9057ZM4.83617 26.1539C4.6939 26.1609 4.54653 26.1898 4.41173 26.2432L4.4133 26.239C4.46482 26.103 4.51709 25.9678 4.56935 25.8326C4.62162 25.6974 4.67388 25.5622 4.7254 25.4263C4.99028 24.7446 5.21751 24.0504 5.4454 23.3542L5.44575 23.3531C5.49146 23.2134 5.5372 23.0736 5.58328 22.9339C5.75701 22.4009 5.92904 21.8628 6.10065 21.326L6.10182 21.3223L6.15408 21.1588C6.15404 21.2863 6.15494 21.4137 6.15584 21.5411L6.15572 21.6377C6.01918 21.8649 5.94748 22.116 5.8752 22.3691C5.85136 22.4526 5.82742 22.5364 5.80111 22.6196C5.77756 22.6916 5.75356 22.7636 5.72955 22.8357L5.72812 22.84L5.72798 22.8405C5.66287 23.0359 5.59762 23.2317 5.54034 23.4292C5.48878 23.6014 5.45534 23.7735 5.43699 23.9487C5.2312 24.2811 5.11294 24.6588 5.03089 25.0545C4.95794 25.4169 4.92423 25.7823 4.92374 26.1507C4.89656 26.1538 4.86637 26.1539 4.83617 26.1539ZM7.11998 18.6167C7.07968 18.6275 7.03939 18.6413 6.99961 18.6578C7.09656 18.3921 7.19316 18.126 7.28977 17.8599C7.48295 17.3278 7.67612 16.7958 7.87197 16.2664C7.94363 16.0722 8.0153 15.878 8.08694 15.6838C8.06194 15.8316 8.04368 15.9794 8.02918 16.1273C7.94953 16.991 7.98158 17.8697 8.09821 18.7302C8.0559 18.7544 8.0136 18.7786 7.97429 18.8118C7.95169 18.8032 7.92909 18.7925 7.90591 18.7816C7.88885 18.7735 7.87148 18.7653 7.85357 18.7577C7.63027 18.6372 7.37976 18.5499 7.11998 18.6167ZM9.63611 13.507C9.24369 13.615 8.9037 13.8556 8.64465 14.1679C8.98556 13.2387 9.32478 12.3084 9.66006 11.3781C9.89098 10.7367 10.1202 10.0948 10.3474 9.45225C10.3885 9.59657 10.4357 9.73942 10.4864 9.88226C10.4513 10.0089 10.421 10.1371 10.3908 10.2645L10.3907 10.265C10.3791 10.3138 10.3676 10.3625 10.3559 10.4109C10.3281 10.5273 10.2997 10.644 10.2714 10.7608C10.1414 11.2955 10.0105 11.834 9.93052 12.3743C9.87569 12.7367 9.82387 13.1022 9.8113 13.4706C9.7509 13.4767 9.6935 13.4919 9.63611 13.507ZM11.0306 7.49787C10.9544 7.71832 10.878 7.9387 10.8012 8.15901C10.9314 8.12476 11.0587 8.12928 11.1802 8.16313C11.1145 7.94625 11.0634 7.72278 11.0306 7.49787ZM11.6604 5.80713C11.6374 5.81559 11.6149 5.82492 11.5929 5.83505C11.6135 5.77189 11.6341 5.7087 11.6545 5.64547C11.6752 5.58141 11.6958 5.51733 11.7163 5.45321C11.6944 5.57118 11.6774 5.68916 11.6604 5.80713ZM29.5889 23.6375C29.7926 23.543 29.999 23.4559 30.2084 23.3815C30.0878 23.2488 29.9702 23.113 29.8556 22.9803C29.3008 22.3711 28.7309 21.783 28.1458 21.1979C28.0321 21.0842 27.9179 20.9711 27.8037 20.858L27.7741 20.8286C27.7555 20.8513 27.7356 20.873 27.7144 20.8935C28.0308 21.4155 28.187 22.0011 28.1862 22.6111C28.1983 22.6111 28.2104 22.6111 28.2194 22.6141C28.449 22.6367 28.673 22.774 28.8682 22.8936L28.8985 22.9121C29.1927 23.0884 29.5052 23.2882 29.5889 23.6375ZM26.4509 19.5273C26.4782 19.5317 26.5054 19.5361 26.5327 19.5404C26.2341 19.2062 25.9356 18.8721 25.64 18.5409C25.4142 18.2846 25.1946 18.0189 24.9757 17.754L24.9754 17.7536L24.9747 17.7527C24.8899 17.6502 24.8053 17.5477 24.7204 17.4459C24.4441 17.1181 24.166 16.7919 23.8876 16.4661C23.8727 16.4917 23.8568 16.5168 23.8398 16.5412C24.0026 16.7342 24.1594 16.9333 24.301 17.1415C24.4517 17.3587 24.5692 17.6032 24.6685 17.8537C24.7528 18.071 24.7887 18.3065 24.7914 18.539C25.2622 18.792 25.7087 19.0813 26.1431 19.3827C26.1703 19.4008 26.1967 19.4196 26.2231 19.4385L26.2236 19.4388C26.2498 19.4575 26.276 19.4763 26.303 19.4942C26.3513 19.5062 26.3996 19.5183 26.4509 19.5273ZM18.512 10.661C18.597 10.7601 18.682 10.859 18.7671 10.9579L18.7499 10.9494C18.7107 10.9313 18.6722 10.9125 18.6338 10.8937L18.6333 10.8934C18.595 10.8747 18.5566 10.856 18.5176 10.838C18.5156 10.779 18.5137 10.72 18.512 10.661ZM17.023 8.95072C17.0239 8.93584 17.0248 8.92096 17.0257 8.90608C16.793 8.62788 16.561 8.34884 16.3289 8.06875C16.0207 7.6984 15.7108 7.32971 15.4008 6.9615C15.4267 7.02958 15.4517 7.09804 15.4755 7.16699C15.629 7.59256 15.7583 8.01818 15.8845 8.4468L15.8901 8.44864C15.8917 8.44916 15.8934 8.44967 15.8949 8.45015C15.9002 8.4517 15.905 8.45282 15.9087 8.45282C16.1834 8.52191 16.3613 8.73003 16.4485 8.99263C16.5056 9.16462 16.5628 9.33679 16.6018 9.51484C16.6383 9.66627 16.6644 9.82121 16.6906 9.97697C16.6988 10.0261 16.7071 10.0754 16.7158 10.1247C16.7172 10.1322 16.718 10.139 16.7187 10.1458C16.7195 10.1525 16.7203 10.1595 16.7217 10.1669C16.8365 9.80054 16.9228 9.43418 17.0111 9.05953L17.0112 9.0591L17.0192 9.02509C17.0203 9.00029 17.0216 8.9755 17.023 8.95072ZM12.4067 3.18503C12.5363 3.37142 12.6677 3.55629 12.8009 3.73967C12.6916 3.76993 12.5851 3.81784 12.4843 3.88551C12.3021 4.00822 12.1656 4.16393 12.0609 4.33954C12.0836 4.26475 12.1064 4.18995 12.1291 4.11516C12.2235 3.80512 12.3178 3.49507 12.4067 3.18503ZM26.4496 22.858C26.5068 22.9334 26.5611 23.0179 26.6063 23.0994C26.6093 23.0903 26.6123 23.0797 26.6154 23.0691C26.6173 23.0623 26.6193 23.0554 26.6213 23.0489C26.6223 23.0455 26.6234 23.0421 26.6245 23.0389C26.6488 22.9121 26.661 22.7852 26.6733 22.6584C26.6764 22.601 26.6765 22.5406 26.6735 22.4832C26.6676 22.4048 26.6586 22.3293 26.6436 22.2538C26.6363 22.2121 26.625 22.1743 26.613 22.1341L26.6046 22.1059C26.5745 22.0214 26.5414 21.9338 26.5022 21.8524L26.457 21.7709L26.4566 21.7714C26.4023 21.8378 26.348 21.9041 26.2877 21.9704C26.1728 22.0914 26.0518 22.2002 25.9249 22.3031C26.1179 22.4719 26.2928 22.6529 26.4496 22.858ZM20.0896 23.1804C20.2583 23.5245 20.4511 23.8564 20.659 24.1792C20.7706 24.3391 20.8851 24.49 21.0087 24.6377C21.1173 24.7584 21.2349 24.87 21.3555 24.9785C21.3689 24.9885 21.3823 24.9985 21.3946 25.0086C21.4011 25.0138 21.4073 25.0191 21.413 25.0244C21.4161 25.0272 21.4191 25.03 21.4219 25.0328C21.4129 24.9815 21.4069 24.9272 21.401 24.8729C21.377 24.7642 21.3499 24.6584 21.3199 24.5558C21.2837 24.4592 21.2476 24.3687 21.2055 24.2781C21.1573 24.1876 21.1091 24.1031 21.0548 24.0187C20.9946 23.9342 20.9312 23.8527 20.8649 23.7683C20.7684 23.6597 20.6659 23.5632 20.5573 23.4667C20.4457 23.3793 20.3371 23.2949 20.2194 23.2135C20.1682 23.1803 20.1138 23.1502 20.0595 23.1201C20.0716 23.1382 20.0806 23.1593 20.0896 23.1804ZM22.9346 20.5586C22.9043 20.6734 22.8498 20.7761 22.7742 20.8638C22.7939 20.8661 22.8136 20.8684 22.8333 20.8707C22.8558 20.8733 22.8783 20.8758 22.9008 20.8784C23.159 20.9077 23.4131 20.9365 23.6648 21.0166C23.8218 21.0647 23.9757 21.1279 24.1296 21.1972L24.0964 21.164C24.012 21.0977 23.9275 21.0314 23.837 20.9711C23.7223 20.8988 23.6077 20.8325 23.484 20.7692C23.3059 20.688 23.1248 20.6097 22.9407 20.5405C22.9388 20.5424 22.9369 20.5467 22.9357 20.5512C22.9351 20.5538 22.9346 20.5564 22.9346 20.5586ZM19.6361 21.342C20.0134 21.417 20.3756 21.5615 20.7106 21.7453C20.7106 21.7333 20.7104 21.7215 20.7102 21.7098C20.7099 21.6979 20.7095 21.686 20.7092 21.6742C20.7086 21.6571 20.7081 21.64 20.7079 21.6225C20.7078 21.6162 20.7077 21.6098 20.7077 21.6033C20.4934 21.5402 20.2882 21.4499 20.086 21.3505C19.9381 21.2813 19.7933 21.2029 19.6515 21.1216C19.6514 21.1769 19.6461 21.2339 19.6408 21.29L19.6407 21.2914C19.6391 21.3084 19.6375 21.3253 19.6361 21.342ZM21.6506 16.5229C21.97 17.0057 22.2562 17.5036 22.5062 18.0196L22.5092 18.0166C22.6633 17.9529 22.8113 17.9135 22.9653 17.8982C22.8508 17.7413 22.7302 17.5965 22.6066 17.4487C22.3051 17.1049 21.9885 16.7641 21.6628 16.4384C21.6497 16.4291 21.6361 16.4198 21.6222 16.4104L21.6035 16.3978C21.5781 16.3808 21.5521 16.3633 21.527 16.3449C21.5487 16.376 21.5704 16.407 21.5916 16.4376C21.6118 16.4665 21.6315 16.4951 21.6506 16.5229ZM15.6876 24.9588C15.6966 24.9558 15.7087 24.9558 15.7147 24.9558C15.7178 24.9528 15.7238 24.9527 15.7268 24.9558C15.7283 24.9543 15.7297 24.953 15.7312 24.9518C15.7322 24.951 15.7333 24.9502 15.7343 24.9495C15.7391 24.9462 15.7442 24.9438 15.7499 24.9411C15.7522 24.94 15.7545 24.9389 15.757 24.9376C15.7662 24.9285 15.7765 24.9204 15.7872 24.9128C15.7941 24.9078 15.8013 24.9031 15.8084 24.8983C15.7994 24.8651 15.7874 24.8349 15.7753 24.8047C15.7542 24.8259 15.73 24.8501 15.7028 24.8712C15.6997 24.8984 15.6936 24.9286 15.6876 24.9588ZM16.6603 20.0958C16.7803 20.7117 16.9395 21.3245 17.1259 21.9221C17.1547 21.7176 17.1854 21.515 17.2165 21.3098L17.2171 21.306L17.2417 21.1429C17.2742 20.9258 17.2986 20.706 17.323 20.4862L17.3231 20.485C17.3354 20.375 17.3476 20.265 17.3608 20.1553C17.3806 19.9907 17.4012 19.8268 17.4218 19.663C17.4424 19.4991 17.463 19.3353 17.4829 19.1707C17.4375 19.21 17.3952 19.2463 17.3499 19.2856C17.1352 19.4701 16.803 19.4826 16.5526 19.3592C16.5794 19.6037 16.6153 19.8513 16.6603 20.0958ZM20.6191 17.8198L20.682 17.9067C20.7241 17.965 20.7657 18.0228 20.806 18.0792C20.8181 18.0852 20.8271 18.0882 20.8422 18.0912C20.7067 17.8529 20.562 17.6175 20.4113 17.3882C20.2124 17.0926 20.0014 16.8029 19.7844 16.5194C19.923 16.7366 20.0624 16.9531 20.2018 17.1696C20.3411 17.3861 20.4805 17.6025 20.6191 17.8198ZM15.1074 20.6777C15.1978 20.8587 15.279 21.0428 15.3573 21.2239C15.3093 21.0248 15.2612 20.8253 15.2222 20.6231C15.1829 20.6443 15.1437 20.6595 15.1074 20.6716L15.1074 20.6777ZM9.05726 24.2187C9.0874 24.261 9.11453 24.3002 9.14164 24.3454C9.25012 24.5144 9.33143 24.6864 9.35532 24.8857C9.37027 25.0034 9.35503 25.1152 9.32167 25.2209C9.37388 25.2409 9.42342 25.2636 9.47294 25.2863C9.48617 25.2924 9.49958 25.2985 9.51286 25.3046C9.52453 25.3098 9.53624 25.3151 9.54802 25.3203C9.58423 25.3383 9.61742 25.3594 9.65061 25.3805C9.66723 25.3699 9.6831 25.3601 9.69897 25.3503C9.71484 25.3404 9.73071 25.3306 9.74732 25.32L9.75181 25.3168L9.75258 25.3162C9.83546 25.257 9.91827 25.1978 9.99819 25.1415C9.96361 25.0676 9.92752 24.9938 9.89142 24.9199C9.85529 24.846 9.819 24.7718 9.78438 24.6979C9.79038 24.7129 9.79712 24.7272 9.80388 24.7415C9.80725 24.7486 9.81061 24.7557 9.81389 24.763C9.81723 24.7703 9.82047 24.7778 9.82352 24.7854C9.77867 24.7038 9.7341 24.622 9.68948 24.54L9.68918 24.5394C9.58701 24.3517 9.48454 24.1635 9.37768 23.9767C9.34581 23.9357 9.31395 23.8963 9.28208 23.8568C9.26639 23.8373 9.25068 23.8179 9.23498 23.7983C9.21923 23.7786 9.20349 23.7587 9.18774 23.7384C9.16066 23.8424 9.13236 23.9451 9.10439 24.0466C9.08847 24.1044 9.07267 24.1618 9.05726 24.2187ZM10.6549 23.1443C10.6555 23.1458 10.656 23.1474 10.6566 23.149C10.6568 23.1498 10.6572 23.1506 10.6575 23.1513C10.6579 23.1522 10.6585 23.153 10.6591 23.1537C10.7435 23.2623 10.831 23.3678 10.9184 23.4734C10.9106 23.4567 10.9028 23.4409 10.8951 23.4252C10.8818 23.3984 10.8685 23.3722 10.8551 23.3436C10.7106 23.0479 10.5932 22.737 10.497 22.4231C10.4456 22.4926 10.3881 22.5561 10.3156 22.6045C10.4314 22.7714 10.5313 22.9382 10.6327 23.1075L10.6531 23.1416C10.6538 23.1423 10.6544 23.1433 10.6549 23.1443ZM16.8531 15.88C17.0585 15.8315 17.2819 15.8674 17.4689 16.0121C17.5095 16.0447 17.55 16.0768 17.5904 16.1089C17.7034 16.1985 17.8156 16.2874 17.9244 16.3829L17.6894 16.0028C17.5417 15.7886 17.3759 15.5925 17.2101 15.3964C17.1709 15.3512 17.1317 15.312 17.0894 15.2698C17.0046 15.4692 16.9228 15.6716 16.8531 15.88ZM13.2215 17.3404C13.2454 17.4853 13.2241 17.6272 13.1937 17.7662C13.4289 18.0497 13.652 18.3333 13.866 18.6319L13.8838 18.6458C13.9868 18.7259 14.0925 18.8081 14.2008 18.8821C14.2914 18.9424 14.3849 18.9997 14.4784 19.0569C14.4725 19.0148 14.468 18.9726 14.4635 18.9305C14.459 18.8882 14.4545 18.8456 14.4486 18.8033C14.3792 18.7702 14.3067 18.728 14.2464 18.6737C13.8543 18.3421 13.5771 17.8774 13.3422 17.4247C13.2759 17.298 13.2157 17.1652 13.1615 17.0324C13.1648 17.0491 13.1681 17.0656 13.1714 17.082L13.1774 17.1117C13.1929 17.1887 13.2081 17.2637 13.2215 17.3404ZM6.93997 24.5748L6.96702 24.6744C6.98808 24.7318 7.01216 24.7921 7.03623 24.8525L7.05908 24.8955C7.09905 24.971 7.13825 25.045 7.18385 25.1211L7.29237 25.2659C7.2988 25.2263 7.30523 25.1868 7.31189 25.147C7.32099 25.0926 7.33052 25.0378 7.34106 24.9819C7.24462 24.8311 7.15725 24.6832 7.06989 24.5294L7.00345 24.5294C6.98231 24.5325 6.96721 24.5355 6.94607 24.5386C6.94304 24.5416 6.937 24.5416 6.93096 24.5416C6.93396 24.5507 6.93697 24.5597 6.93997 24.5748ZM16.3122 13.8878C16.5721 13.7364 16.9014 13.6424 17.1972 13.6843C17.2335 13.6903 17.2636 13.6963 17.2999 13.7022C17.2699 13.5392 17.2399 13.3762 17.216 13.2132C17.1591 12.866 17.1203 12.5127 17.0875 12.1595C17.0573 12.1716 17.0271 12.1777 16.9969 12.1837C16.9984 12.2185 17.0006 12.2524 17.0028 12.2864C17.005 12.3204 17.0072 12.3543 17.0087 12.3891C17.0204 12.691 16.8116 12.9782 16.5367 13.0903C16.446 13.1266 16.3554 13.1449 16.2648 13.145C16.2826 13.3926 16.3004 13.6402 16.3122 13.8878ZM10.9842 19.3726C11.1867 19.2183 11.4284 19.1093 11.6791 19.0697C11.6822 19.0244 11.6793 18.9791 11.6793 18.9308C11.6734 18.8462 11.6644 18.7647 11.6525 18.6802C11.633 18.6607 11.6133 18.6415 11.5935 18.6224C11.5795 18.6089 11.5655 18.5955 11.5514 18.5821C11.5175 18.5497 11.4836 18.5173 11.4504 18.4841C11.1637 18.2027 10.9068 17.8913 10.6518 17.5821C10.6145 17.5369 10.5772 17.4916 10.5398 17.4466C10.2557 17.6583 9.84797 17.7162 9.50684 17.6412C9.54535 18.2058 9.61709 18.7614 9.71902 19.3169C9.79442 19.3862 9.86378 19.4616 9.93313 19.537C10.0387 19.6546 10.1261 19.7844 10.1984 19.9171C10.2542 19.9095 10.3109 19.9011 10.3675 19.8928C10.4241 19.8844 10.4807 19.876 10.5366 19.8684C10.5427 19.8563 10.5487 19.8457 10.5548 19.8351C10.5609 19.8246 10.5669 19.814 10.573 19.8019C10.6244 19.7143 10.6879 19.6387 10.7605 19.5661C10.83 19.4966 10.9056 19.4331 10.9842 19.3726ZM12.4305 14.9407L12.3763 14.7596L12.3039 14.7416C12.3491 14.8049 12.3913 14.8713 12.4305 14.9407ZM13.797 11.433C13.7849 11.4572 13.7728 11.4814 13.7576 11.5025C13.7575 11.6173 13.7573 11.732 13.7602 11.8498C13.8566 11.9886 13.938 12.1364 14.0103 12.2873C14.1134 11.9369 14.2135 11.5835 14.3016 11.2301C14.1687 11.194 14.045 11.1307 13.9455 11.0312C13.9277 11.1661 13.8644 11.2954 13.8025 11.4218L13.797 11.433ZM11.4706 12.3239C11.4068 12.6652 11.361 13.0065 11.3304 13.3568C11.5268 13.2569 11.7503 13.2144 11.9768 13.205L11.9318 12.9605C11.885 12.7001 11.8851 12.4376 11.8852 12.1731L11.8852 12.1714C11.8852 12.1145 11.8852 12.0574 11.8848 12.0003C11.7761 11.946 11.6735 11.8858 11.58 11.8165C11.5405 11.9826 11.5041 12.1518 11.4706 12.3239ZM12.6513 7.81996C12.7235 8.0252 12.8047 8.22743 12.8981 8.42962C12.9824 8.59862 13.0697 8.76458 13.1601 8.92149L13.1632 8.91846C13.1511 8.87318 13.1384 8.82715 13.1256 8.78111C13.1128 8.73508 13.1 8.68905 13.088 8.64376C13.0602 8.54564 13.0326 8.44773 13.0051 8.34998C12.9284 8.07783 12.852 7.8069 12.7724 7.53595C12.7709 7.5284 12.7687 7.5216 12.7664 7.51481L12.7658 7.51302C12.7644 7.50877 12.763 7.50448 12.7618 7.49998C12.7613 7.49793 12.7608 7.49584 12.7604 7.49369C12.706 7.53604 12.6486 7.57538 12.5881 7.60565C12.6122 7.67809 12.6332 7.74752 12.6513 7.81996Z" fill="black"/>
</svg>
